<svg xmlns="http://www.w3.org/2000/svg" viewBox="0 0 290 71" fill="white">
    <path d="M271.131 70.944C259.131 70.944 252.027 63.264 252.027 43.968C252.027 25.248 258.747 17.472 271.131 17.472C285.243 17.472 290.139 27.936 289.371 47.0401H267.003C267.003 56.9281 268.443 60 271.131 60C273.723 60 274.875 57.8881 275.259 52.7041H289.371C288.315 66.3361 281.307 70.944 271.131 70.944ZM271.131 28.416C268.635 28.416 267.291 30.7201 266.907 38.5921H275.163C274.875 31.0081 273.627 28.416 271.131 28.416Z" />
    <path d="M231.991 12.96V0H246.871V12.96H231.991ZM231.991 69.984V18.432H246.871V69.984H231.991Z" />
    <path d="M213.742 70.944C208.75 70.944 205.678 68.448 203.854 63.648H203.278L203.086 69.984H188.398V0H203.278V24.672H203.854C205.582 20.064 209.134 17.472 213.742 17.472C223.822 17.472 226.798 27.264 226.798 44.16C226.798 65.088 221.614 70.944 213.742 70.944ZM207.502 59.232C211.054 59.232 211.918 54.336 211.918 44.16C211.918 33.024 210.67 28.992 207.502 28.992C204.43 28.992 203.278 33.792 203.278 42.336V46.08C203.278 55.776 204.718 59.232 207.502 59.232Z" />
    <path d="M170.148 70.944C165.156 70.944 162.084 68.448 160.26 63.648H159.684L159.492 69.984H144.804V0H159.684V24.672H160.26C161.988 20.064 165.54 17.472 170.148 17.472C180.228 17.472 183.204 27.264 183.204 44.16C183.204 65.088 178.02 70.944 170.148 70.944ZM163.908 59.232C167.46 59.232 168.324 54.336 168.324 44.16C168.324 33.024 167.076 28.992 163.908 28.992C160.836 28.992 159.684 33.792 159.684 42.336V46.08C159.684 55.776 161.124 59.232 163.908 59.232Z" />
    <path d="M123.616 12.96V0H138.496V12.96H123.616ZM123.616 69.984V18.432H138.496V69.984H123.616Z" />
    <path d="M110.88 69.984C103.2 69.984 99.744 66.528 99.744 59.136V30.24L96 30.528V18.432L99.744 18.528V5.472L114.912 4.224V18.528L119.328 18.432V30.528L114.912 30.24V56.064C114.912 58.176 115.296 58.752 117.024 58.752H119.328V69.984H110.88Z" />
    <path d="M35 46.8153C45.2066 46.8153 54.1313 52.3027 58.9855 60.4881C52.7209 66.3855 44.2828 70 35 70C25.7171 70 17.2788 66.3857 11.0142 60.4881C15.8683 52.3026 24.7934 46.8153 35 46.8153Z" fill="#FE5F38" />
    <path d="M35 0C54.33 0 70 15.67 70 35C70 42.3669 67.7235 49.2019 63.8363 54.8408C57.5239 45.6838 46.9631 39.6815 35 39.6815C23.0368 39.6815 12.4757 45.6837 6.16323 54.8408C2.2761 49.2019 0 42.3668 0 35C0 15.67 15.67 0 35 0Z" fill="#FF9278" />
</svg>
